
<svg width="127px" height="31px" viewBox="0 0 127 31" version="1.1" xmlns="http://www.w3.org/2000/svg" xmlns:xlink="http://www.w3.org/1999/xlink">
    <g id="Symbols" stroke="none" stroke-width="1" fill="none" fill-rule="evenodd">
        <g id="Logo-/-Grey-Copy" transform="translate(-1.000000, -0.000000)">
            <g id="Group" transform="translate(1.000000, 0.129630)">
                <path d="M81.9010688,10.0706227 C89.7344135,-5.02701837 117.236942,6.28645714 121.762976,0.443883898 C129.327125,13.6617023 126.75642,24.0041292 117.947077,28.1055497 C109.137734,32.2069702 98.3177004,25.9619408 84.6738368,30.3961851 C80.3410778,23.2515366 79.1213954,15.428042 81.9010688,10.0706227 Z" id="Rectangle-Copy-3" fill="#DADADA"></path>
                <g id="recycle-ALL" transform="translate(0.664062, 3.077402)" fill-rule="nonzero">
                    <path d="M0,8.37890625 L2.63671875,8.37890625 L2.63671875,9.3984375 C3.12109617,8.89062246 3.55077938,8.54296969 3.92578125,8.35546875 C4.30859566,8.16015527 4.76171613,8.0625 5.28515625,8.0625 C5.98047223,8.0625 6.70702746,8.28906023 7.46484375,8.7421875 L6.2578125,11.15625 C5.75781,10.7968732 5.26953363,10.6171875 4.79296875,10.6171875 C3.35546156,10.6171875 2.63671875,11.7031141 2.63671875,13.875 L2.63671875,19.7929688 L0,19.7929688 L0,8.37890625 Z M19.2070312,14.7070312 L11.0273438,14.7070312 C11.0976566,15.6445359 11.4023411,16.3906222 11.9414062,16.9453125 C12.4804714,17.4921902 13.1718708,17.765625 14.015625,17.765625 C14.6718783,17.765625 15.2148416,17.6093766 15.6445312,17.296875 C16.0664084,16.9843734 16.5468723,16.4062542 17.0859375,15.5625 L19.3125,16.8046875 C18.9687483,17.3906279 18.6054707,17.892576 18.2226562,18.3105469 C17.8398418,18.7285177 17.4296897,19.0722643 16.9921875,19.3417969 C16.5546853,19.6113295 16.0820338,19.8085931 15.5742188,19.9335938 C15.0664037,20.0585944 14.515628,20.1210938 13.921875,20.1210938 C12.2187415,20.1210938 10.8515677,19.5742242 9.8203125,18.4804688 C8.78905734,17.3789007 8.2734375,15.9179779 8.2734375,14.0976562 C8.2734375,12.2929597 8.7734325,10.8320368 9.7734375,9.71484375 C10.781255,8.61327574 12.1171792,8.0625 13.78125,8.0625 C15.4609459,8.0625 16.7890576,8.5976509 17.765625,9.66796875 C18.7343798,10.7304741 19.21875,12.2031156 19.21875,14.0859375 L19.2070312,14.7070312 Z M16.5,12.5507812 C16.1328107,11.1445242 15.2461008,10.4414062 13.8398438,10.4414062 C13.5195296,10.4414062 13.2187514,10.4902339 12.9375,10.5878906 C12.6562486,10.6855474 12.4003918,10.826171 12.1699219,11.0097656 C11.939452,11.1933603 11.7421883,11.4140612 11.578125,11.671875 C11.4140617,11.9296888 11.2890629,12.2226546 11.203125,12.5507812 L16.5,12.5507812 Z M30.9726562,8.87109375 L30.9726562,12.375 C30.3710907,11.6406213 29.8320336,11.1367201 29.3554688,10.8632812 C28.8867164,10.5820298 28.3359407,10.4414062 27.703125,10.4414062 C26.7109325,10.4414062 25.886722,10.789059 25.2304688,11.484375 C24.5742155,12.179691 24.2460938,13.050776 24.2460938,14.0976562 C24.2460938,15.1679741 24.5624968,16.0468716 25.1953125,16.734375 C25.8359407,17.4218784 26.6523388,17.765625 27.6445312,17.765625 C28.2773469,17.765625 28.8359351,17.6289076 29.3203125,17.3554688 C29.7890648,17.0898424 30.3398406,16.5742226 30.9726562,15.8085937 L30.9726562,19.2890625 C29.9023384,19.8437528 28.8320366,20.1210938 27.7617188,20.1210938 C25.9960849,20.1210938 24.5195372,19.550787 23.3320312,18.4101562 C22.1445253,17.261713 21.5507812,15.835946 21.5507812,14.1328125 C21.5507812,12.429679 22.1523377,10.9921934 23.3554688,9.8203125 C24.5585998,8.64843164 26.0351475,8.0625 27.7851562,8.0625 C28.9101619,8.0625 29.9726512,8.33202855 30.9726562,8.87109375 Z M37.125,17.671875 L31.9921875,8.37890625 L35.0507812,8.37890625 L38.5429688,14.9414063 L41.8007812,8.37890625 L44.7773438,8.37890625 L35.6835938,26.0039062 L32.671875,26.0039062 L37.125,17.671875 Z M54.9726562,8.87109375 L54.9726562,12.375 C54.3710907,11.6406213 53.8320336,11.1367201 53.3554688,10.8632812 C52.8867164,10.5820298 52.3359407,10.4414062 51.703125,10.4414062 C50.7109325,10.4414062 49.886722,10.789059 49.2304688,11.484375 C48.5742155,12.179691 48.2460938,13.050776 48.2460938,14.0976562 C48.2460938,15.1679741 48.5624968,16.0468716 49.1953125,16.734375 C49.8359407,17.4218784 50.6523388,17.765625 51.6445312,17.765625 C52.2773469,17.765625 52.8359351,17.6289076 53.3203125,17.3554688 C53.7890648,17.0898424 54.3398406,16.5742226 54.9726562,15.8085937 L54.9726562,19.2890625 C53.9023384,19.8437528 52.8320366,20.1210938 51.7617188,20.1210938 C49.9960849,20.1210938 48.5195372,19.550787 47.3320312,18.4101562 C46.1445253,17.261713 45.5507812,15.835946 45.5507812,14.1328125 C45.5507812,12.429679 46.1523377,10.9921934 47.3554688,9.8203125 C48.5585998,8.64843164 50.0351475,8.0625 51.7851562,8.0625 C52.9101619,8.0625 53.9726512,8.33202855 54.9726562,8.87109375 Z M60.1640625,-1.77635684e-15 L60.1640625,19.7929688 L57.5273438,19.7929688 L57.5273438,-1.77635684e-15 L60.1640625,-1.77635684e-15 Z M73.8984375,14.7070312 L65.71875,14.7070312 C65.7890629,15.6445359 66.0937473,16.3906222 66.6328125,16.9453125 C67.1718777,17.4921902 67.863277,17.765625 68.7070312,17.765625 C69.3632845,17.765625 69.9062479,17.6093766 70.3359375,17.296875 C70.7578146,16.9843734 71.2382786,16.4062542 71.7773438,15.5625 L74.0039062,16.8046875 C73.6601545,17.3906279 73.2968769,17.892576 72.9140625,18.3105469 C72.5312481,18.7285177 72.1210959,19.0722643 71.6835938,19.3417969 C71.2460916,19.6113295 70.77344,19.8085931 70.265625,19.9335938 C69.75781,20.0585944 69.2070342,20.1210938 68.6132812,20.1210938 C66.9101477,20.1210938 65.5429739,19.5742242 64.5117188,18.4804688 C63.4804636,17.3789007 62.9648438,15.9179779 62.9648438,14.0976562 C62.9648438,12.2929597 63.4648387,10.8320368 64.4648438,9.71484375 C65.4726613,8.61327574 66.8085854,8.0625 68.4726562,8.0625 C70.1523521,8.0625 71.4804639,8.5976509 72.4570312,9.66796875 C73.4257861,10.7304741 73.9101562,12.2031156 73.9101562,14.0859375 L73.8984375,14.7070312 Z M71.1914062,12.5507812 C70.8242169,11.1445242 69.937507,10.4414062 68.53125,10.4414062 C68.2109359,10.4414062 67.9101577,10.4902339 67.6289062,10.5878906 C67.3476548,10.6855474 67.091798,10.826171 66.8613281,11.0097656 C66.6308582,11.1933603 66.4335946,11.4140612 66.2695312,11.671875 C66.1054679,11.9296888 65.9804692,12.2226546 65.8945312,12.5507812 L71.1914062,12.5507812 Z" id="recycle" fill="#B2B2B2"></path>
                    <path d="M93.8566875,14.7529688 L92.2726875,10.2349687 L90.6886875,14.7529688 L93.8566875,14.7529688 Z M94.7926875,17.4349687 L89.7526875,17.4349687 L88.9426875,19.7929688 L85.1806875,19.7929688 L90.3466875,6.22096875 L94.1986875,6.22096875 L99.3646875,19.7929688 L95.6026875,19.7929688 L94.7926875,17.4349687 Z M104.440687,6.22096875 L104.440687,16.8049688 L108.670687,16.8049688 L108.670687,19.7929688 L100.912687,19.7929688 L100.912687,6.22096875 L104.440687,6.22096875 Z M114.016687,6.22096875 L114.016687,16.8049688 L118.246687,16.8049688 L118.246687,19.7929688 L110.488687,19.7929688 L110.488687,6.22096875 L114.016687,6.22096875 Z" id="ALL" fill="#FFFFFF"></path>
                </g>
            </g>
        </g>
    </g>
</svg>
