
<svg width="16px" height="16px" viewBox="0 0 16 16" version="1.1" xmlns="http://www.w3.org/2000/svg" xmlns:xlink="http://www.w3.org/1999/xlink">
    <g id="Symbols" stroke="none" stroke-width="1" fill="none" fill-rule="evenodd" opacity="0.2">
        <g id="Header" transform="translate(-1216.000000, -30.000000)" fill="#000000" fill-rule="nonzero">
            <g id="search" transform="translate(1040.000000, 20.000000)">
                <g id="magnifier" transform="translate(176.000000, 10.000000)">
                    <path d="M15.5248335,13.2318738 L11.5565199,9.26315789 C10.9652388,10.1827532 10.1827343,10.9648816 9.26315789,11.5562104 L13.2317924,15.5249263 C13.8653537,16.1583579 14.8925913,16.1583579 15.5247979,15.5249263 C16.1583948,14.8925285 16.1583948,13.8652698 15.5248335,13.2318738 Z" id="Path"></path>
                    <path d="M11.7894737,5.89480164 C11.7894737,2.63948324 9.15013453,0 5.89476924,0 C2.63946874,0 0,2.63948324 0,5.89480164 C0,9.15012003 2.63946874,11.7894737 5.89476924,11.7894737 C9.15013453,11.7894737 11.7894737,9.15012003 11.7894737,5.89480164 Z M5.89476924,10.3157328 C3.45684132,10.3157328 1.47373281,8.33277535 1.47373281,5.89483403 C1.47373281,3.45689271 3.45684132,1.4737733 5.89476924,1.4737733 C8.33263237,1.4737733 10.3159029,3.45689271 10.3159029,5.89483403 C10.3159029,8.33277535 8.33263237,10.3157328 5.89476924,10.3157328 Z" id="Shape"></path>
                    <path d="M2.52631579,6.73684211 L3.72919863,6.73684211 C3.72919863,5.07852017 5.07854422,3.72930631 6.73684211,3.72930631 L6.73684211,2.52631579 C4.41545515,2.52631579 2.52631579,4.41543735 2.52631579,6.73684211 Z" id="Path"></path>
                </g>
            </g>
        </g>
    </g>
</svg>
