
<svg width="36px" height="36px" viewBox="0 0 36 36" version="1.1" xmlns="http://www.w3.org/2000/svg" xmlns:xlink="http://www.w3.org/1999/xlink">
    <g id="Home" stroke="none" stroke-width="1" fill="none" fill-rule="evenodd">
        <g id="Desktop-HD" transform="translate(-439.000000, -3686.000000)" fill="#FFFFFF" fill-rule="nonzero">
            <g id="slideshow-row" transform="translate(0.000000, 3036.000000)">
                <g id="Group-7" transform="translate(400.000000, 650.000000)">
                    <g id="zoom-in-button" transform="translate(39.000000, 0.000000)">
                        <path d="M35.3059308,31.3629989 L30.1169454,26.1832234 C29.6217561,25.6879763 28.9474559,25.4560573 28.2942276,25.4876733 L25.7971407,22.9900158 C30.0483585,17.3676864 29.6164537,9.32663608 24.4959175,4.1996227 C18.8961682,-1.40162943 9.80895343,-1.40162943 4.2091352,4.21016134 C-1.40128784,9.82195211 -1.40128784,18.901024 4.19859926,24.5022761 C9.32436901,29.6293583 17.363292,30.0561388 22.9841821,25.8038324 L25.4812002,28.3015587 C25.4495923,28.9548855 25.6813831,29.6293583 26.1765723,30.1247433 L31.3550217,35.3044498 C32.2821845,36.2318501 33.7940577,36.2318501 34.7212205,35.3044498 L35.2954637,34.7300596 C36.2330936,33.8026594 36.2330936,32.3009377 35.3059308,31.3629989 Z M21.444396,21.4421926 C17.5707838,25.3161845 11.2775105,25.3266831 7.40389828,21.4526912 C3.53028608,17.5786993 3.53028608,11.2953077 7.41439587,7.41074858 C11.2880081,3.53675667 17.58135,3.52625805 21.4549622,7.40024995 C25.3285744,11.2742419 25.3127937,17.5577021 21.444396,21.4421926 Z" id="Shape"></path>
                        <path d="M17.5879541,12.5881297 L15.4165911,12.5881297 L15.4165911,10.4167706 C15.4165911,9.63297101 14.7836826,9 14.0096187,9 L13.9950449,9 C13.2209173,9 12.5880725,9.63290736 12.5880725,10.4167706 L12.5880725,12.5881297 L10.4167095,12.5881297 C9.63290849,12.5881297 9,13.2210371 9,13.9951633 L9,14.0049003 C9,14.7790266 9.63290849,15.4118703 10.4167095,15.4118703 L12.5880725,15.4118703 L12.5880725,17.5832294 C12.5880725,18.3670926 13.220981,19 13.9950449,19 L14.004782,19 C14.7788459,19 15.4117544,18.3671563 15.4117544,17.5832294 L15.4117544,15.4118703 L17.5831174,15.4118703 C18.3669184,15.4118703 18.9998906,14.7789629 18.9998906,14.0049003 L18.9998906,13.9951633 C19.009564,13.2210371 18.3767191,12.5881297 17.5879541,12.5881297 Z" id="Path"></path>
                    </g>
                </g>
            </g>
        </g>
    </g>
</svg>
